<svg xmlns="http://www.w3.org/2000/svg" viewBox="0 0 451.4447790117717 38.06767669663144" height="33.351869790167754" width="395.52"><g><svg viewBox="0 0 49.42198245328114 38.06767669663144" height="38.06767669663144" width="49.42198245328114"><g><svg xmlns="http://www.w3.org/2000/svg" xmlns:xlink="http://www.w3.org/1999/xlink" version="1.1" x="0" y="0" viewBox="6.5 18.424999999999997 86.95528143562223 66.97800000000001" enable-background="new 0 0 100 100" xml:space="preserve" height="38.06767669663144" width="49.42198245328114" class="icon-icon-0" data-fill-palette-color="accent" id="icon-0"><circle cx="51.342" cy="24.537" r="6.1" fill="#000000" data-fill-palette-color="accent"/><path d="M91.5 60.575H84.718L62.681 26.839 51.729 43.267 39.146 20.499 16.169 60.575H8.5A2 2 0 0 0 8.5 64.575H32.841V55.878L31.863 56.905 29.69 54.837 32.841 51.528V50.266L31.779 51.381 29.606 49.313 32.841 45.916V44.742L31.779 45.857 29.606 43.789 33.21 40.005C33.491 39.71 33.88 39.542 34.287 39.539 34.707 39.518 35.085 39.7 35.37 39.991L39.064 43.775 36.918 45.871 35.842 44.768V45.998L39.065 49.299 36.919 51.395 35.843 50.292V51.436L39.149 54.823 37 56.919 35.841 55.731V64.575H43.695V55.877L42.716 56.905 40.544 54.837 43.695 51.528V50.266L42.633 51.381 40.46 49.313 43.695 45.916V44.742L42.633 45.857 40.46 43.789 44.064 40.005C44.345 39.71 44.734 39.542 45.141 39.539 45.554 39.518 45.939 39.7 46.224 39.991L49.917 43.775 47.771 45.871 46.696 44.769V45.998L49.918 49.299 47.772 51.395 46.697 50.293V51.436L50 54.823 47.854 56.919 46.695 55.731V64.575H59.849V55.979L58.869 57.008 56.696 54.94 59.849 51.629V50.368L58.784 51.485 56.612 49.415 59.849 46.019V44.843L58.784 45.961 56.612 43.891 60.218 40.107C60.499 39.812 60.888 39.645 61.295 39.642H61.304A1.5 1.5 0 0 1 62.377 40.094L66.07 43.878 63.924 45.974 62.849 44.872V46.101L66.071 49.402 63.925 51.498 62.85 50.396V51.541L66.156 54.926 64.01 57.022 62.851 55.835V64.574H91.5A2 2 0 0 0 91.5 60.575" fill="#000000" data-fill-palette-color="accent"/><g fill="#000000" data-fill-palette-color="accent"><path d="M23.5 72.25A1.5 1.5 0 0 0 22 70.75H10.25A1.5 1.5 0 1 0 10.25 73.75H22A1.5 1.5 0 0 0 23.5 72.25" fill="#000000" data-fill-palette-color="accent"/><path d="M53 70.75H44.5A1.5 1.5 0 1 0 44.5 73.75H53A1.5 1.5 0 0 0 53 70.75" fill="#000000" data-fill-palette-color="accent"/><path d="M88.75 70.75H75A1.5 1.5 0 0 0 75 73.75H88.75A1.5 1.5 0 0 0 88.75 70.75" fill="#000000" data-fill-palette-color="accent"/><path d="M72 78.5H63.5A1.5 1.5 0 0 0 63.5 81.5H72A1.5 1.5 0 0 0 72 78.5" fill="#000000" data-fill-palette-color="accent"/><path d="M29.5 82.403H21A1.5 1.5 0 1 0 21 85.403H29.5A1.5 1.5 0 1 0 29.5 82.403" fill="#000000" data-fill-palette-color="accent"/></g></svg></g></svg></g></svg>
